<svg xmlns="http://www.w3.org/2000/svg" viewBox="0 0 160 160" role="img" aria-label="BerlinWalk tool">
  <defs>
    <linearGradient id="bg" x1="24" y1="22" x2="138" y2="142" gradientUnits="userSpaceOnUse">
      <stop offset="0" stop-color="#1B5E20"/>
      <stop offset="1" stop-color="#7CB342"/>
    </linearGradient>
    <filter id="shadow" x="-20%" y="-20%" width="140%" height="140%">
      <feDropShadow dx="0" dy="8" stdDeviation="8" flood-color="#0A2D10" flood-opacity=".28"/>
    </filter>
  </defs>
  <rect width="160" height="160" rx="34" fill="#FAFAF5"/>
  <rect x="14" y="14" width="132" height="132" rx="28" fill="url(#bg)" filter="url(#shadow)"/>
  <path d="M38 112c16-20 30-30 44-30 12 0 20 8 32 8 7 0 13-3 20-9" fill="none" stroke="#FFE600" stroke-width="9" stroke-linecap="round" stroke-linejoin="round"/>
  <path d="M43 57h74a10 10 0 0 1 10 10v45H33V67a10 10 0 0 1 10-10Z" fill="#FFFFFF" opacity=".96"/>
  <path d="M48 71h26M48 84h42M48 97h20" fill="none" stroke="#1B5E20" stroke-width="5" stroke-linecap="round"/>
  <circle cx="107" cy="84" r="20" fill="#FFE600"/>
  <path d="M107 70v14l10 7" fill="none" stroke="#1B5E20" stroke-width="6" stroke-linecap="round" stroke-linejoin="round"/>
  <path d="M34 118h92" fill="none" stroke="#C5E1A5" stroke-width="6" stroke-linecap="round"/>
</svg>
